<svg xmlns="http://www.w3.org/2000/svg" xmlns:xlink="http://www.w3.org/1999/xlink" viewBox="0 0 1087.6 652.13"><defs><style>.cls-1{mask:url(#mask);filter:url(#luminosity-noclip-4);}.cls-2,.cls-4,.cls-6{mix-blend-mode:multiply;}.cls-2{fill:url(#linear-gradient);}.cls-3{mask:url(#mask-2);filter:url(#luminosity-noclip-5);}.cls-4{fill:url(#linear-gradient-2);}.cls-5{mask:url(#mask-3);filter:url(#luminosity-noclip-6);}.cls-6{fill:url(#linear-gradient-3);}.cls-7{fill:url(#Безымянный_градиент_3);}.cls-8{mask:url(#mask-4);}.cls-11,.cls-13,.cls-9{opacity:0.92;}.cls-9{fill:url(#linear-gradient-4);}.cls-10{mask:url(#mask-5);}.cls-11{fill:url(#linear-gradient-5);}.cls-12{mask:url(#mask-6);}.cls-13{fill:url(#linear-gradient-6);}.cls-14{opacity:0.21;}.cls-15{fill:#fff;}.cls-16{filter:url(#luminosity-noclip-3);}.cls-17{filter:url(#luminosity-noclip-2);}.cls-18{filter:url(#luminosity-noclip);}</style><filter id="luminosity-noclip" x="862.35" y="-8480.58" width="144.17" height="32766" filterUnits="userSpaceOnUse" color-interpolation-filters="sRGB"><feFlood flood-color="#fff" result="bg"/><feBlend in="SourceGraphic" in2="bg"/></filter><mask id="mask" x="862.35" y="-8480.58" width="144.17" height="32766" maskUnits="userSpaceOnUse"><g class="cls-18"/></mask><linearGradient id="linear-gradient" x1="934.44" y1="234.03" x2="934.44" y2="340.56" gradientUnits="userSpaceOnUse"><stop offset="0" stop-color="#fff"/><stop offset="1"/></linearGradient><filter id="luminosity-noclip-2" x="17.21" y="-8480.58" width="157.23" height="32766" filterUnits="userSpaceOnUse" color-interpolation-filters="sRGB"><feFlood flood-color="#fff" result="bg"/><feBlend in="SourceGraphic" in2="bg"/></filter><mask id="mask-2" x="17.21" y="-8480.58" width="157.23" height="32766" maskUnits="userSpaceOnUse"><g class="cls-17"/></mask><linearGradient id="linear-gradient-2" x1="95.82" y1="249.33" x2="95.82" y2="365.52" xlink:href="#linear-gradient"/><filter id="luminosity-noclip-3" x="960.27" y="-8480.58" width="127.33" height="32766" filterUnits="userSpaceOnUse" color-interpolation-filters="sRGB"><feFlood flood-color="#fff" result="bg"/><feBlend in="SourceGraphic" in2="bg"/></filter><mask id="mask-3" x="960.27" y="-8480.58" width="127.33" height="32766" maskUnits="userSpaceOnUse"><g class="cls-16"/></mask><linearGradient id="linear-gradient-3" x1="1023.93" y1="521.34" x2="1023.93" y2="602.2" xlink:href="#linear-gradient"/><linearGradient id="Безымянный_градиент_3" x1="387.31" y1="341.09" x2="387.31" y2="-73.41" gradientTransform="translate(91.7 103.7) scale(1.21 1.41)" gradientUnits="userSpaceOnUse"><stop offset="0" stop-color="#455fe8"/><stop offset="1" stop-color="#6535b3"/></linearGradient><filter id="luminosity-noclip-4" x="862.35" y="83.69" width="144.17" height="35.63" filterUnits="userSpaceOnUse" color-interpolation-filters="sRGB"><feFlood flood-color="#fff" result="bg"/><feBlend in="SourceGraphic" in2="bg"/></filter><mask id="mask-4" x="862.35" y="83.69" width="144.17" height="35.63" maskUnits="userSpaceOnUse"><g class="cls-1"><path class="cls-2" d="M981.43,83.69A25.21,25.21,0,0,0,962,92.58,27.56,27.56,0,0,0,918,99a21.76,21.76,0,0,0-5.45-.69,21.5,21.5,0,0,0-13.09,4.41,20.19,20.19,0,0,0-37,9.24c0,.28,0,.57-.06.85a6.25,6.25,0,0,0,6.26,6.52h131.2a6.23,6.23,0,0,0,6.1-4.86,25.26,25.26,0,0,0-24.49-30.77Z"/></g></mask><linearGradient id="linear-gradient-4" x1="934.44" y1="81.84" x2="934.44" y2="128.98" gradientUnits="userSpaceOnUse"><stop offset="0" stop-color="#fff"/><stop offset="1" stop-color="#d1daff"/></linearGradient><filter id="luminosity-noclip-5" x="17.21" y="85.38" width="157.23" height="38.85" filterUnits="userSpaceOnUse" color-interpolation-filters="sRGB"><feFlood flood-color="#fff" result="bg"/><feBlend in="SourceGraphic" in2="bg"/></filter><mask id="mask-5" x="17.21" y="85.38" width="157.23" height="38.85" maskUnits="userSpaceOnUse"><g class="cls-3"><path class="cls-4" d="M147.06,85.38a27.48,27.48,0,0,0-21.16,9.7,30.05,30.05,0,0,0-48.05,7,23.78,23.78,0,0,0-5.95-.76,23.49,23.49,0,0,0-14.28,4.82A22,22,0,0,0,17.28,116.2c0,.31-.05.62-.07.93A6.83,6.83,0,0,0,24,124.24H167.12a6.81,6.81,0,0,0,6.66-5.3,27.56,27.56,0,0,0-26.72-33.56Z"/></g></mask><linearGradient id="linear-gradient-5" x1="95.82" y1="94.54" x2="95.82" y2="142.7" xlink:href="#linear-gradient-4"/><filter id="luminosity-noclip-6" x="960.27" y="504.8" width="127.33" height="36.56" filterUnits="userSpaceOnUse" color-interpolation-filters="sRGB"><feFlood flood-color="#fff" result="bg"/><feBlend in="SourceGraphic" in2="bg"/></filter><mask id="mask-6" x="960.27" y="504.8" width="127.33" height="36.56" maskUnits="userSpaceOnUse"><g class="cls-5"><path class="cls-6" d="M1087.6,515a20.69,20.69,0,0,0-17.41,9.36,22.16,22.16,0,0,0-19-3.81,28.28,28.28,0,0,0-45.21-6.59,25.94,25.94,0,0,0-45.06,22.46,6.4,6.4,0,0,0,6.26,5H1087.6Z"/></g></mask><linearGradient id="linear-gradient-6" x1="1023.93" y1="521.34" x2="1023.93" y2="602.2" xlink:href="#linear-gradient-4"/></defs><g id="Layer_2" data-name="Layer 2"><g id="Layer_1-2" data-name="Layer 1"><rect id="bg" class="cls-7" x="41.66" width="1040.86" height="585.48"/><g class="cls-8"><path class="cls-9" d="M981.43,83.69A25.21,25.21,0,0,0,962,92.58,27.56,27.56,0,0,0,918,99a21.76,21.76,0,0,0-5.45-.69,21.5,21.5,0,0,0-13.09,4.41,20.19,20.19,0,0,0-37,9.24c0,.28,0,.57-.06.85a6.25,6.25,0,0,0,6.26,6.52h131.2a6.23,6.23,0,0,0,6.1-4.86,25.26,25.26,0,0,0-24.49-30.77Z"/></g><g class="cls-10"><path class="cls-11" d="M147.06,85.38a27.48,27.48,0,0,0-21.16,9.7,30.05,30.05,0,0,0-48.05,7,23.78,23.78,0,0,0-5.95-.76,23.49,23.49,0,0,0-14.28,4.82A22,22,0,0,0,17.28,116.2c0,.31-.05.62-.07.93A6.83,6.83,0,0,0,24,124.24H167.12a6.81,6.81,0,0,0,6.66-5.3,27.56,27.56,0,0,0-26.72-33.56Z"/></g><g class="cls-12"><path class="cls-13" d="M1087.6,515a20.69,20.69,0,0,0-17.41,9.36,22.16,22.16,0,0,0-19-3.81,28.28,28.28,0,0,0-45.21-6.59,25.94,25.94,0,0,0-45.06,22.46,6.4,6.4,0,0,0,6.26,5H1087.6Z"/></g><g class="cls-14"><polygon class="cls-15" points="91.38 652.13 74.01 636.98 150.14 549.68 140.13 540.94 189.6 521.97 177.53 573.57 167.52 564.83 91.38 652.13"/><polygon class="cls-15" points="17.37 567.44 0 552.29 54.26 490.08 44.24 481.34 93.72 462.37 81.65 513.97 71.63 505.23 17.37 567.44"/><polygon class="cls-15" points="47.16 613.57 29.79 598.42 126.83 487.14 116.81 478.4 166.29 459.43 154.22 511.03 144.21 502.29 47.16 613.57"/></g></g></g></svg>